<mxfile host="65bd71144e">
    <diagram id="F4ZG4xCLZ7L-n-scFKPf" name="Page-1">
        <mxGraphModel dx="1077" dy="401" grid="1" gridSize="10" guides="1" tooltips="1" connect="1" arrows="1" fold="1" page="1" pageScale="1" pageWidth="850" pageHeight="1100" math="0" shadow="0">
            <root>
                <mxCell id="0"/>
                <mxCell id="1" parent="0"/>
                <mxCell id="4" value="client" style="shape=umlLifeline;perimeter=lifelinePerimeter;whiteSpace=wrap;html=1;container=1;dropTarget=0;collapsible=0;recursiveResize=0;outlineConnect=0;portConstraint=eastwest;newEdgeStyle={&quot;curved&quot;:0,&quot;rounded&quot;:0};participant=umlEntity;" vertex="1" parent="1">
                    <mxGeometry x="100" y="50" width="40" height="600" as="geometry"/>
                </mxCell>
                <mxCell id="10" value="" style="html=1;points=[[0,0,0,0,5],[0,1,0,0,-5],[1,0,0,0,5],[1,1,0,0,-5]];perimeter=orthogonalPerimeter;outlineConnect=0;targetShapes=umlLifeline;portConstraint=eastwest;newEdgeStyle={&quot;curved&quot;:0,&quot;rounded&quot;:0};" vertex="1" parent="4">
                    <mxGeometry x="15" y="70" width="10" height="80" as="geometry"/>
                </mxCell>
                <mxCell id="11" value="" style="html=1;points=[[0,0,0,0,5],[0,1,0,0,-5],[1,0,0,0,5],[1,1,0,0,-5]];perimeter=orthogonalPerimeter;outlineConnect=0;targetShapes=umlLifeline;portConstraint=eastwest;newEdgeStyle={&quot;curved&quot;:0,&quot;rounded&quot;:0};" vertex="1" parent="4">
                    <mxGeometry x="15" y="170" width="10" height="80" as="geometry"/>
                </mxCell>
                <mxCell id="5" value="&amp;nbsp; Server" style="shape=umlLifeline;perimeter=lifelinePerimeter;whiteSpace=wrap;html=1;container=1;dropTarget=0;collapsible=0;recursiveResize=0;outlineConnect=0;portConstraint=eastwest;newEdgeStyle={&quot;curved&quot;:0,&quot;rounded&quot;:0};participant=umlBoundary;" vertex="1" parent="1">
                    <mxGeometry x="270" y="50" width="50" height="590" as="geometry"/>
                </mxCell>
                <mxCell id="6" value="" style="html=1;points=[[0,0,0,0,5],[0,1,0,0,-5],[1,0,0,0,5],[1,1,0,0,-5]];perimeter=orthogonalPerimeter;outlineConnect=0;targetShapes=umlLifeline;portConstraint=eastwest;newEdgeStyle={&quot;curved&quot;:0,&quot;rounded&quot;:0};" vertex="1" parent="5">
                    <mxGeometry x="20" y="100" width="10" height="120" as="geometry"/>
                </mxCell>
                <mxCell id="20" value="" style="html=1;points=[[0,0,0,0,5],[0,1,0,0,-5],[1,0,0,0,5],[1,1,0,0,-5]];perimeter=orthogonalPerimeter;outlineConnect=0;targetShapes=umlLifeline;portConstraint=eastwest;newEdgeStyle={&quot;curved&quot;:0,&quot;rounded&quot;:0};" vertex="1" parent="5">
                    <mxGeometry x="20" y="280" width="10" height="80" as="geometry"/>
                </mxCell>
                <mxCell id="26" value="" style="html=1;points=[[0,0,0,0,5],[0,1,0,0,-5],[1,0,0,0,5],[1,1,0,0,-5]];perimeter=orthogonalPerimeter;outlineConnect=0;targetShapes=umlLifeline;portConstraint=eastwest;newEdgeStyle={&quot;curved&quot;:0,&quot;rounded&quot;:0};" vertex="1" parent="5">
                    <mxGeometry x="20" y="410" width="10" height="90" as="geometry"/>
                </mxCell>
                <mxCell id="7" value="richiesta dati" style="html=1;verticalAlign=bottom;endArrow=block;curved=0;rounded=0;entryX=0;entryY=0;entryDx=0;entryDy=5;" edge="1" target="6" parent="1" source="4">
                    <mxGeometry relative="1" as="geometry">
                        <mxPoint x="220" y="155" as="sourcePoint"/>
                    </mxGeometry>
                </mxCell>
                <mxCell id="8" value="dati della query" style="html=1;verticalAlign=bottom;endArrow=open;dashed=1;endSize=8;curved=0;rounded=0;exitX=0;exitY=1;exitDx=0;exitDy=-5;" edge="1" source="6" parent="1" target="4">
                    <mxGeometry relative="1" as="geometry">
                        <mxPoint x="220" y="225" as="targetPoint"/>
                    </mxGeometry>
                </mxCell>
                <mxCell id="13" value="DB" style="shape=umlLifeline;perimeter=lifelinePerimeter;whiteSpace=wrap;html=1;container=1;dropTarget=0;collapsible=0;recursiveResize=0;outlineConnect=0;portConstraint=eastwest;newEdgeStyle={&quot;curved&quot;:0,&quot;rounded&quot;:0};participant=umlEntity;" vertex="1" parent="1">
                    <mxGeometry x="460" y="50" width="40" height="600" as="geometry"/>
                </mxCell>
                <mxCell id="17" value="" style="html=1;points=[[0,0,0,0,5],[0,1,0,0,-5],[1,0,0,0,5],[1,1,0,0,-5]];perimeter=orthogonalPerimeter;outlineConnect=0;targetShapes=umlLifeline;portConstraint=eastwest;newEdgeStyle={&quot;curved&quot;:0,&quot;rounded&quot;:0};" vertex="1" parent="13">
                    <mxGeometry x="15" y="120" width="10" height="80" as="geometry"/>
                </mxCell>
                <mxCell id="23" value="" style="html=1;points=[[0,0,0,0,5],[0,1,0,0,-5],[1,0,0,0,5],[1,1,0,0,-5]];perimeter=orthogonalPerimeter;outlineConnect=0;targetShapes=umlLifeline;portConstraint=eastwest;newEdgeStyle={&quot;curved&quot;:0,&quot;rounded&quot;:0};" vertex="1" parent="13">
                    <mxGeometry x="15" y="280" width="10" height="80" as="geometry"/>
                </mxCell>
                <mxCell id="29" value="" style="html=1;points=[[0,0,0,0,5],[0,1,0,0,-5],[1,0,0,0,5],[1,1,0,0,-5]];perimeter=orthogonalPerimeter;outlineConnect=0;targetShapes=umlLifeline;portConstraint=eastwest;newEdgeStyle={&quot;curved&quot;:0,&quot;rounded&quot;:0};" vertex="1" parent="13">
                    <mxGeometry x="15" y="420" width="10" height="80" as="geometry"/>
                </mxCell>
                <mxCell id="18" value="query" style="html=1;verticalAlign=bottom;endArrow=block;curved=0;rounded=0;entryX=0;entryY=0;entryDx=0;entryDy=5;" edge="1" target="17" parent="1" source="6">
                    <mxGeometry relative="1" as="geometry">
                        <mxPoint x="405" y="175" as="sourcePoint"/>
                    </mxGeometry>
                </mxCell>
                <mxCell id="19" value="risultato della query" style="html=1;verticalAlign=bottom;endArrow=open;dashed=1;endSize=8;curved=0;rounded=0;exitX=0;exitY=1;exitDx=0;exitDy=-5;" edge="1" source="17" parent="1" target="6">
                    <mxGeometry relative="1" as="geometry">
                        <mxPoint x="405" y="245" as="targetPoint"/>
                    </mxGeometry>
                </mxCell>
                <mxCell id="21" value="login(user,password)" style="html=1;verticalAlign=bottom;endArrow=block;curved=0;rounded=0;entryX=0;entryY=0;entryDx=0;entryDy=5;" edge="1" target="20" parent="1" source="4">
                    <mxGeometry relative="1" as="geometry">
                        <mxPoint x="220" y="335" as="sourcePoint"/>
                    </mxGeometry>
                </mxCell>
                <mxCell id="22" value="loggato" style="html=1;verticalAlign=bottom;endArrow=open;dashed=1;endSize=8;curved=0;rounded=0;exitX=0;exitY=1;exitDx=0;exitDy=-5;" edge="1" source="20" parent="1" target="4">
                    <mxGeometry relative="1" as="geometry">
                        <mxPoint x="220" y="405" as="targetPoint"/>
                    </mxGeometry>
                </mxCell>
                <mxCell id="24" value="user trovato" style="html=1;verticalAlign=bottom;endArrow=block;curved=0;rounded=0;entryX=0;entryY=0;entryDx=0;entryDy=5;exitX=1;exitY=0;exitDx=0;exitDy=5;exitPerimeter=0;" edge="1" target="23" parent="1" source="20">
                    <mxGeometry relative="1" as="geometry">
                        <mxPoint x="405" y="335" as="sourcePoint"/>
                    </mxGeometry>
                </mxCell>
                <mxCell id="25" value="login avvenuto con successo" style="html=1;verticalAlign=bottom;endArrow=open;dashed=1;endSize=8;curved=0;rounded=0;exitX=0;exitY=1;exitDx=0;exitDy=-5;entryX=1;entryY=1;entryDx=0;entryDy=-5;entryPerimeter=0;" edge="1" source="23" parent="1" target="20">
                    <mxGeometry relative="1" as="geometry">
                        <mxPoint x="405" y="405" as="targetPoint"/>
                    </mxGeometry>
                </mxCell>
                <mxCell id="27" value="register" style="html=1;verticalAlign=bottom;endArrow=block;curved=0;rounded=0;" edge="1" target="26" parent="1" source="4">
                    <mxGeometry relative="1" as="geometry">
                        <mxPoint x="220" y="475" as="sourcePoint"/>
                    </mxGeometry>
                </mxCell>
                <mxCell id="28" value="utente registrato" style="html=1;verticalAlign=bottom;endArrow=open;dashed=1;endSize=8;curved=0;rounded=0;exitX=0;exitY=1;exitDx=0;exitDy=-5;" edge="1" source="26" parent="1" target="4">
                    <mxGeometry relative="1" as="geometry">
                        <mxPoint x="220" y="545" as="targetPoint"/>
                    </mxGeometry>
                </mxCell>
                <mxCell id="30" value="check dei dati e insert al db" style="html=1;verticalAlign=bottom;endArrow=block;curved=0;rounded=0;entryX=0;entryY=0;entryDx=0;entryDy=5;" edge="1" target="29" parent="1" source="26">
                    <mxGeometry relative="1" as="geometry">
                        <mxPoint x="405" y="475" as="sourcePoint"/>
                    </mxGeometry>
                </mxCell>
                <mxCell id="31" value="dati aggiunti con successo" style="html=1;verticalAlign=bottom;endArrow=open;dashed=1;endSize=8;curved=0;rounded=0;exitX=0;exitY=1;exitDx=0;exitDy=-5;" edge="1" source="29" parent="1" target="5">
                    <mxGeometry relative="1" as="geometry">
                        <mxPoint x="405" y="545" as="targetPoint"/>
                    </mxGeometry>
                </mxCell>
            </root>
        </mxGraphModel>
    </diagram>
</mxfile>